<svg width="386" height="352" viewBox="0 0 386 352" fill="none" xmlns="http://www.w3.org/2000/svg">
<path fill-rule="evenodd" clip-rule="evenodd" d="M136.361 348.617C133.352 349.92 130.464 350.773 127.677 351.271L127.149 348.318C129.702 347.862 132.367 347.077 135.169 345.864L136.361 348.617ZM118.586 351.741C115.492 351.526 112.54 350.963 109.702 350.245L110.438 347.337C113.161 348.026 115.929 348.549 118.794 348.748L118.586 351.741Z" fill="#0084FF"/>
<path fill-rule="evenodd" clip-rule="evenodd" d="M358.784 274.058C361.57 273.105 364.477 272.335 367.425 271.769L367.99 274.715C365.177 275.255 362.407 275.99 359.754 276.897L358.784 274.058ZM376.309 270.711C379.358 270.574 382.38 270.679 385.29 271.057L384.904 274.032C382.184 273.679 379.337 273.578 376.444 273.708L376.309 270.711Z" fill="#0084FF"/>
<path fill-rule="evenodd" clip-rule="evenodd" d="M249.511 1.4213C248.351 4.72977 246.807 8.14106 244.807 11.5071L242.228 9.97427C244.12 6.79055 245.581 3.56159 246.68 0.428253L249.511 1.4213ZM238.172 20.4502C235.774 23.0714 233.016 25.5666 229.858 27.8512L228.1 25.4207C231.088 23.2586 233.694 20.9001 235.959 18.425L238.172 20.4502ZM98.6051 29.1732C95.3934 28.9601 92.1457 28.8314 88.848 28.807L88.8702 25.8071C92.2315 25.8319 95.5382 25.9631 98.8038 26.1798L98.6051 29.1732ZM79.0934 29.0488C75.9186 29.232 72.6875 29.5226 69.389 29.9366L69.0154 26.96C72.3822 26.5374 75.6803 26.2408 78.9206 26.0538L79.0934 29.0488ZM118.053 31.3818C114.828 30.8902 111.597 30.4453 108.342 30.0687L108.687 27.0886C111.984 27.4701 115.252 27.9202 118.505 28.416L118.053 31.3818ZM59.7535 31.4733C58.1766 31.7781 56.5831 32.1123 54.9719 32.4773C53.2845 32.8595 51.6396 33.287 50.0363 33.7556L49.1946 30.8761C50.8568 30.3903 52.5614 29.9473 54.309 29.5514C55.9512 29.1794 57.5759 28.8387 59.1841 28.5278L59.7535 31.4733ZM136.695 34.5793C133.696 34.0364 130.718 33.4972 127.744 32.9782L128.26 30.0229C131.243 30.5435 134.23 31.0843 137.227 31.6268L137.968 31.761L137.434 34.713L136.695 34.5793ZM220.274 33.4726C217.103 34.9581 213.649 36.2532 209.891 37.3146L209.076 34.4276C212.681 33.4091 215.982 32.1703 219.001 30.7559L220.274 33.4726ZM156.907 38.0285C153.61 37.5319 150.36 36.996 147.147 36.4417L147.657 33.4853C150.856 34.0372 154.083 34.5694 157.354 35.0619L156.907 38.0285ZM40.4773 37.2153C37.2661 38.6137 34.2538 40.1769 31.4316 41.8602L29.8949 39.2836C32.822 37.5378 35.9474 35.9158 39.2796 34.4648L40.4773 37.2153ZM171.65 39.8836C169.991 39.7214 168.347 39.5433 166.718 39.3517L167.068 36.3723C168.679 36.5617 170.303 36.7376 171.942 36.8978C173.77 37.0765 175.557 37.2165 177.303 37.3196L177.126 40.3144C175.34 40.209 173.515 40.0659 171.65 39.8836ZM199.067 39.5711C195.62 40.0574 191.97 40.3701 188.104 40.4877L188.013 37.489C191.774 37.3747 195.315 37.0708 198.648 36.6006L199.067 39.5711ZM23.037 47.6035C20.2527 49.7706 17.7065 52.0328 15.3861 54.3222L13.2791 52.1866C15.6771 49.8207 18.3111 47.4801 21.1945 45.2361L23.037 47.6035ZM8.54602 61.8672C6.21219 64.7427 4.22157 67.5393 2.54857 70.1166L0.0322266 68.4832C1.757 65.8261 3.80945 62.9426 6.21669 59.9767L8.54602 61.8672Z" fill="#0084FF"/>
</svg>
