<svg width="170" height="881" viewBox="0 0 170 881" fill="none" xmlns="http://www.w3.org/2000/svg">
<path fill-rule="evenodd" clip-rule="evenodd" d="M114.858 2.13441C112.708 5.2698 110.242 7.9016 107.516 10.123L105.621 7.79739C108.13 5.75271 110.4 3.33149 112.384 0.437805L114.858 2.13441ZM98.3167 15.79C95.1198 17.2642 91.735 18.4212 88.2262 19.3649L87.4471 16.4678C90.8319 15.5575 94.0507 14.4535 97.0605 13.0657L98.3167 15.79ZM77.8564 21.5794C74.4435 22.1611 70.9568 22.6468 67.4501 23.1118L67.0557 20.1379C70.5538 19.674 73.9959 19.1941 77.3523 18.6221L77.8564 21.5794ZM57.0876 24.4949C53.6443 24.9827 50.218 25.5218 46.8406 26.1821L46.265 23.2379C49.7131 22.5637 53.1957 22.0163 56.6667 21.5245L57.0876 24.4949ZM36.8187 28.6185C33.5231 29.6101 30.3245 30.7972 27.2583 32.2507L25.9732 29.54C29.1973 28.0115 32.54 26.773 35.9543 25.7457L36.8187 28.6185ZM18.5373 37.4495C15.8996 39.4076 13.4094 41.6758 11.0997 44.3191L8.84066 42.3451C11.2956 39.5356 13.9447 37.1225 16.7491 35.0407L18.5373 37.4495ZM1.48493 445.445C0.897601 442.536 0.483952 439.59 0.220703 436.674L3.20855 436.405C3.46286 439.222 3.86173 442.059 4.4256 444.852L1.48493 445.445ZM7.44163 462.221C5.99815 459.646 4.79532 456.892 3.805 454.036L6.63944 453.053C7.57961 455.764 8.71276 458.353 10.0585 460.754L7.44163 462.221ZM166.057 864.099C165.859 861.265 165.402 858.6 164.759 856.16L167.66 855.395C168.351 858.016 168.839 860.868 169.05 863.89L166.057 864.099ZM164.376 880.083C165.138 877.385 165.635 874.733 165.908 872.161L168.891 872.478C168.601 875.215 168.072 878.033 167.263 880.898L164.376 880.083Z" fill="#0084FF"/>
</svg>
